<?xml version="1.0" encoding="UTF-8"?>
<svg enable-background="new 0 0 124.7 124.7" viewBox="0 0 124.7 124.7" xml:space="preserve" xmlns="http://www.w3.org/2000/svg">
	<path d="m71.7 62.3c0 5.2-4.2 9.4-9.4 9.4s-9.4-4.2-9.4-9.4 4.2-9.4 9.4-9.4 9.4 4.3 9.4 9.4z"/>
	<path d="m62.3 0c-34.4 0-62.3 27.9-62.3 62.3s27.9 62.3 62.3 62.3 62.3-27.9 62.3-62.3c0.1-34.4-27.8-62.3-62.3-62.3zm45.2 62.3c0 24.9-20.3 45.2-45.2 45.2s-45.2-20.3-45.2-45.2 20.3-45.2 45.2-45.2c25 0 45.2 20.3 45.2 45.2zm-45-56.8h-0.1 0.1z"/>
	<path d="m62.3 35.7c8.4 0 15.4-6.1 16.9-14.1-5.2-2.2-10.9-3.4-16.9-3.4s-11.7 1.2-16.9 3.4c1.5 8 8.5 14.1 16.9 14.1z"/>
	<path d="m84.7 49.1c4.3 7.5 13.5 10.5 21.4 7.3-1.6-12-8-22.4-17.2-29.3-6.6 5.2-8.5 14.5-4.2 22z"/>
	<path d="m88.9 97.5c9.2-7 15.6-17.5 17.2-29.5-7.9-3.5-17.4-0.5-21.8 7.1-4.5 7.7-2.3 17.3 4.6 22.4z"/>
	<path d="m44.4 102.7c5.5 2.4 11.5 3.8 17.9 3.8 5.7 0 11.2-1.1 16.3-3.1v-0.1c-0.9-8.7-8.2-15.5-17.1-15.5-8.7 0-15.9 6.5-17.1 14.9z"/>
	<path d="m34.7 96.7c6.8-5.2 8.8-14.7 4.5-22.3-4.2-7.3-13-10.3-20.7-7.6 1.2 12 7.2 22.7 16.2 29.9z"/>
	<path d="m39.6 48.3c4.2-7.2 2.5-16.1-3.5-21.5-9.2 6.8-15.7 17.1-17.4 29 7.7 2.9 16.6-0.1 20.9-7.5z"/>
</svg>